<?xml version="1.0" standalone="no"?>
<!DOCTYPE svg PUBLIC "-//W3C//DTD SVG 20010904//EN"
 "http://www.w3.org/TR/2001/REC-SVG-20010904/DTD/svg10.dtd">
<svg version="1.0" xmlns="http://www.w3.org/2000/svg"
 width="900.000000pt" height="720.000000pt" viewBox="0 0 900.000000 720.000000"
 preserveAspectRatio="xMidYMid meet">
<metadata>
Created by potrace 1.10, written by Peter Selinger 2001-2011
</metadata>
<g transform="translate(0.000000,720.000000) scale(0.100000,-0.100000)"
fill="#8490b5" stroke="none">
<path d="M4810 7071 c-30 -5 -66 -13 -80 -18 -14 -6 -52 -19 -85 -29 -73 -23
-198 -85 -296 -150 -255 -165 -510 -421 -604 -608 -34 -68 -50 -78 -73 -45
-30 44 -216 221 -297 282 -44 34 -82 63 -85 67 -13 15 -88 60 -150 90 -141 69
-187 80 -326 81 -95 1 -134 -4 -190 -20 -80 -25 -195 -81 -278 -136 -73 -49
-247 -214 -322 -307 -33 -40 -62 -75 -65 -78 -9 -8 -125 -182 -140 -212 -83
-160 -122 -260 -160 -413 -6 -27 -15 -104 -18 -170 -6 -113 -7 -120 -26 -116
-11 3 -83 5 -160 5 -139 1 -207 -9 -267 -40 -14 -8 -33 -14 -41 -14 -9 0 -28
-7 -44 -14 -15 -8 -62 -31 -103 -51 -41 -20 -88 -45 -105 -55 -16 -11 -37 -23
-45 -27 -14 -6 -92 -62 -188 -135 -47 -36 -178 -180 -193 -213 -5 -11 -18 -33
-29 -50 -22 -34 -60 -114 -60 -125 0 -4 -7 -21 -15 -36 -8 -16 -15 -36 -15
-45 0 -8 -6 -35 -14 -60 -76 -245 -65 -628 26 -894 5 -16 13 -43 17 -60 4 -16
19 -55 33 -85 14 -30 30 -66 36 -80 6 -14 25 -47 41 -75 17 -27 35 -59 40 -70
16 -37 184 -206 260 -264 42 -31 106 -72 144 -91 37 -19 67 -38 67 -43 0 -4
-23 -31 -50 -59 -118 -120 -194 -273 -250 -503 -40 -161 -14 -435 56 -603 50
-119 119 -228 188 -298 50 -49 162 -127 221 -153 41 -18 145 -51 160 -51 7 0
21 -40 34 -102 25 -119 69 -216 139 -308 58 -77 189 -201 241 -228 173 -92
241 -112 381 -112 189 0 337 73 498 244 34 36 67 66 73 66 7 0 33 -19 58 -42
140 -128 222 -192 326 -253 41 -25 81 -45 88 -45 7 0 22 -7 33 -15 10 -8 27
-15 36 -15 10 0 32 -6 50 -14 186 -79 751 -96 1010 -30 32 7 67 14 79 14 30 0
149 35 294 87 60 22 215 98 258 127 21 14 40 26 42 26 22 0 276 197 378 294
67 63 69 63 131 -16 42 -54 149 -144 211 -177 22 -12 47 -26 55 -30 101 -54
218 -88 345 -101 152 -16 257 -3 427 51 59 20 202 91 229 115 8 8 19 14 24 14
23 0 165 135 227 217 21 28 45 54 53 56 7 3 39 -1 72 -8 32 -8 85 -14 118 -15
66 0 281 26 298 37 6 3 27 10 46 14 72 15 216 75 286 120 17 10 39 23 50 28
23 10 172 137 177 150 2 4 21 29 42 55 44 52 47 57 97 158 76 153 99 245 99
403 0 115 -16 216 -46 298 -46 124 -73 182 -105 232 -10 17 -22 37 -26 45 -15
33 -95 129 -163 196 -53 53 -70 76 -64 86 5 9 49 47 98 87 184 146 377 342
501 506 57 74 67 91 147 249 23 44 48 167 48 235 0 134 -72 308 -180 435 -60
69 -197 196 -213 196 -3 0 -25 13 -49 28 -39 25 -59 36 -138 71 -83 37 -170
52 -332 58 -153 5 -168 8 -168 24 0 10 4 20 9 24 6 3 21 29 36 58 14 28 38 75
52 102 14 28 32 66 40 85 9 19 22 48 29 63 8 16 14 35 14 42 0 8 6 29 14 47
48 114 64 380 30 497 -28 93 -70 182 -121 253 -45 62 -191 198 -239 223 -22
10 -46 24 -54 30 -21 16 -155 70 -220 88 -155 45 -201 50 -410 50 -196 -1
-259 -6 -475 -44 -33 -6 -80 -14 -105 -19 -58 -9 -134 -29 -188 -47 -24 -8
-46 -12 -49 -9 -10 10 -34 76 -43 119 -4 21 -13 44 -19 50 -6 6 -11 19 -11 29
0 24 -74 186 -127 278 -45 78 -138 192 -224 276 -123 119 -250 195 -414 248
-58 19 -272 29 -355 17z m272 -381 c31 -11 72 -29 90 -40 18 -11 42 -24 54
-29 53 -24 197 -181 261 -286 42 -68 85 -172 124 -295 11 -36 27 -80 35 -98 8
-18 14 -40 14 -48 0 -27 50 -108 86 -140 19 -17 53 -36 77 -42 23 -6 72 -18
108 -27 68 -17 87 -15 214 20 137 38 255 62 360 75 39 4 115 14 169 20 109 14
282 9 361 -10 86 -20 179 -51 215 -70 19 -10 44 -23 55 -28 38 -18 113 -92
147 -144 68 -106 83 -199 52 -326 -29 -118 -91 -262 -163 -383 -11 -19 -25
-43 -31 -54 -6 -11 -19 -33 -29 -50 -11 -16 -36 -61 -56 -100 -32 -60 -37 -80
-38 -140 -1 -56 3 -76 18 -97 24 -32 66 -58 94 -58 11 0 42 -13 68 -29 42 -26
63 -30 178 -40 312 -27 357 -37 514 -114 59 -29 160 -116 217 -188 32 -39 74
-134 74 -166 -1 -189 -338 -567 -763 -857 -38 -25 -72 -46 -76 -46 -4 0 -29
-24 -55 -53 -122 -133 -89 -253 94 -346 150 -76 266 -195 338 -346 64 -135 92
-275 72 -355 -6 -25 -15 -61 -19 -80 -8 -34 -24 -70 -58 -135 -21 -39 -149
-167 -188 -188 -146 -77 -214 -98 -394 -122 -122 -15 -141 -12 -141 28 0 24
-37 86 -65 109 -35 29 -89 40 -138 27 -74 -18 -122 -73 -173 -199 -57 -140
-172 -264 -310 -331 -110 -53 -171 -70 -277 -76 -87 -5 -130 3 -225 43 -18 8
-37 14 -43 14 -24 0 -125 77 -192 147 -40 40 -73 78 -75 83 -2 4 24 39 57 78
79 92 117 157 125 214 10 68 -7 121 -51 157 -86 71 -176 48 -298 -74 -45 -44
-90 -91 -100 -105 -134 -172 -325 -358 -510 -496 -94 -71 -154 -107 -250 -153
-38 -19 -78 -38 -89 -43 -74 -38 -312 -95 -433 -105 -82 -6 -90 2 -45 45 85
81 155 217 156 303 1 72 -20 99 -75 99 -34 0 -46 -8 -106 -66 -102 -100 -161
-139 -278 -189 -16 -6 -47 -20 -68 -29 -65 -28 -77 -23 -77 32 0 26 8 96 17
155 16 104 16 109 -1 142 -22 40 -53 53 -146 61 -85 8 -146 -16 -179 -70 -21
-33 -22 -45 -18 -129 3 -50 15 -126 27 -167 33 -113 35 -130 17 -130 -44 0
-241 144 -362 265 -94 93 -133 138 -195 220 -56 76 -144 161 -192 186 -65 33
-125 21 -178 -36 -43 -46 -32 -196 21 -285 35 -59 33 -84 -10 -106 -12 -6 -34
-23 -49 -36 -64 -59 -152 -118 -200 -133 -47 -16 -54 -16 -109 0 -32 9 -78 26
-102 37 -65 31 -162 128 -201 200 -33 60 -34 68 -34 163 -1 76 4 108 17 132
32 60 15 157 -37 208 -30 30 -93 55 -136 55 -21 0 -62 -12 -91 -26 -61 -31
-77 -32 -147 -9 -55 18 -150 94 -174 140 -68 126 -85 176 -99 293 -20 175 20
346 110 477 60 87 89 107 188 131 116 30 163 82 163 183 0 48 -5 65 -30 99
-16 23 -43 48 -60 57 -24 13 -30 22 -30 49 0 34 -15 53 -62 77 -15 8 -57 35
-95 60 -37 25 -88 57 -113 70 -120 64 -263 190 -303 266 -113 213 -177 445
-177 643 0 81 32 297 49 329 6 11 11 28 12 38 0 10 11 38 24 63 13 25 28 55
34 67 19 41 143 163 215 211 104 70 199 122 271 148 50 19 184 54 207 54 37 0
161 -49 178 -70 3 -3 22 -17 43 -29 30 -18 53 -23 103 -23 58 0 68 3 106 34
45 37 85 120 75 157 -8 32 11 323 27 391 42 189 105 347 186 466 16 24 44 65
62 92 17 26 39 54 47 63 9 9 34 38 56 64 44 54 199 192 230 206 11 5 34 18 50
29 17 11 35 21 40 23 6 2 26 10 45 17 101 37 199 16 340 -74 70 -45 132 -99
290 -252 80 -77 161 -151 179 -164 86 -60 146 -74 185 -45 13 10 24 11 37 5
65 -36 133 10 235 156 104 150 268 338 372 427 78 66 100 83 212 157 60 40
202 110 224 110 8 0 29 7 47 15 51 22 182 19 251 -5z"/>
<path d="M2190 4971 c-189 -62 -321 -356 -285 -632 7 -53 18 -105 24 -117 6
-11 11 -27 11 -35 0 -14 27 -77 55 -125 63 -114 233 -181 309 -121 28 22 34
53 12 66 -19 11 -46 68 -46 97 0 14 -5 37 -11 53 -18 45 -29 204 -20 293 8 75
18 99 43 100 8 0 80 -151 129 -273 16 -39 36 -69 64 -91 22 -18 47 -46 55 -62
25 -49 125 -176 182 -230 106 -103 209 -159 353 -194 167 -41 340 -7 496 96
37 24 73 44 81 44 9 0 46 -14 84 -31 111 -50 195 -69 319 -69 156 0 264 38
399 138 75 56 76 56 122 37 61 -27 184 -55 239 -55 103 0 267 64 361 142 25
21 50 38 54 38 4 0 32 -16 61 -36 99 -67 238 -113 340 -114 99 0 225 50 292
116 57 56 80 107 82 185 1 51 7 74 24 98 13 18 33 73 46 124 36 147 69 207
112 207 l25 0 -6 -92 c-18 -255 -18 -284 -5 -324 49 -144 188 -150 275 -12 83
131 120 408 73 543 -41 118 -100 172 -232 215 -82 26 -228 9 -317 -36 -52 -26
-144 -125 -173 -186 -57 -120 -70 -176 -71 -298 -1 -63 -5 -120 -9 -127 -11
-17 -94 -53 -122 -53 -41 0 -115 39 -211 110 -80 58 -102 70 -147 75 -71 9
-125 -7 -178 -53 -119 -103 -222 -162 -281 -162 -32 0 -87 25 -193 85 -96 54
-181 35 -290 -67 -117 -109 -176 -138 -276 -138 -90 0 -172 29 -279 99 -76 49
-95 55 -160 49 -39 -4 -61 -14 -102 -47 -139 -109 -166 -128 -213 -144 -147
-50 -281 19 -432 223 -29 39 -71 80 -106 103 -53 36 -57 41 -57 76 0 107 -87
286 -192 397 -79 84 -134 114 -215 119 -37 3 -79 1 -93 -4z"/>
<path d="M4985 3292 c-33 -11 -60 -35 -83 -73 -18 -30 -22 -51 -22 -119 0
-111 29 -200 83 -252 36 -35 44 -38 96 -38 51 0 62 4 98 35 71 60 92 174 54
288 -21 64 -52 113 -87 140 -26 19 -107 30 -139 19z"/>
<path d="M2763 3171 c-73 -67 -94 -192 -52 -324 29 -93 68 -127 147 -127 52 0
62 3 91 32 49 48 64 91 64 183 1 106 -24 185 -70 230 -33 32 -42 35 -92 35
-48 0 -61 -4 -88 -29z"/>
</g>
</svg>
