 <svg  version="1.0" xmlns="http://www.w3.org/2000/svg"  width="300.000000pt" height="244.000000pt" viewBox="0 0 300.000000 244.000000"  preserveAspectRatio="xMidYMid meet">  
 <g transform="translate(0.000000,244.000000) scale(0.100000,-0.100000)" fill="#8490b5" stroke="none"> 
 <path d="M1646 2169 c-102 -24 -257 -144 -303 -234 l-21 -39 -20 39 c-56 110 -193 166 -318 130 -155 -45 -209 -98 -281 -275 -9 -23 -15 -25 -84 -25 -91 -1 -172 -35 -237 -98 -149 -145 -128 -314 75 -591 l66 -90 -24 -15 c-48 -32 -101 -86 -120 -122 -23 -45 -25 -119 -5 -158 31 -58 141 -132 223 -149 l38 -8 -3 -51 c-7 -96 47 -150 139 -141 32 3 60 14 84 32 40 31 79 100 70 124 -5 14 -9 11 -22 -13 -57 -111 -177 -149 -224 -72 -35 59 -20 112 42 140 21 10 39 25 39 33 0 18 -41 18 -66 -1 -10 -8 -34 -15 -51 -15 -72 0 -209 75 -238 130 -46 88 19 203 147 263 54 24 63 47 20 47 -24 0 -38 14 -100 102 -107 150 -146 234 -150 325 -4 63 -1 81 22 127 45 92 137 158 239 172 25 4 57 4 70 0 24 -6 25 -7 20 -90 -4 -63 -1 -97 12 -139 42 -134 171 -203 206 -110 26 68 -40 233 -123 308 l-51 46 28 72 c72 182 282 275 434 192 63 -35 96 -79 112 -152 7 -32 18 -53 26 -53 7 0 13 6 13 14 0 30 72 154 112 193 103 100 258 156 334 120 47 -23 64 -67 75 -190 4 -54 11 -102 14 -107 13 -21 52 -8 115 35 74 52 140 75 217 75 130 0 205 -89 155 -186 -20 -38 -153 -175 -201 -205 -30 -19 -22 -49 13 -49 13 0 61 7 107 16 161 31 286 6 317 -61 27 -59 1 -158 -56 -218 -15 -16 -71 -51 -124 -78 -58 -29 -98 -55 -98 -64 0 -17 18 -19 53 -6 48 18 175 31 223 22 68 -13 99 -48 99 -111 0 -42 -5 -54 -35 -85 -19 -20 -67 -52 -107 -72 -69 -34 -74 -35 -117 -23 -35 10 -59 10 -116 0 -76 -13 -110 -34 -110 -70 0 -43 88 -44 202 -4 23 8 44 12 47 8 13 -12 2 -104 -15 -134 -47 -79 -209 -134 -289 -98 -26 11 -27 14 -29 58 -2 37 -40 35 -44 -3 -4 -37 -64 -96 -126 -126 -71 -33 -171 -39 -213 -12 -50 32 -56 73 -20 142 16 31 27 65 25 75 -4 16 -7 15 -16 -8 -26 -64 -67 -110 -137 -153 -70 -44 -162 -86 -218 -99 l-29 -7 26 34 c31 40 60 107 47 107 -5 0 -12 -8 -15 -17 -8 -24 -81 -103 -95 -103 -6 0 -11 9 -11 19 0 11 -5 32 -10 47 l-11 28 -21 -21 -21 -21 21 -36 c12 -20 20 -36 18 -36 -29 0 -101 42 -155 90 -62 55 -91 72 -91 53 0 -18 106 -126 147 -150 70 -41 170 -44 268 -8 41 15 111 51 155 81 l80 53 0 -27 c1 -34 25 -65 69 -87 71 -36 224 4 309 80 l49 44 22 -22 c18 -19 32 -22 95 -22 62 1 83 6 139 33 36 18 79 48 95 67 35 39 57 123 44 169 -8 28 -6 30 69 68 46 23 93 55 118 83 38 41 41 49 41 100 0 31 -7 69 -16 86 -21 41 -84 69 -158 69 l-59 0 46 35 c53 41 95 118 103 191 8 71 -24 130 -90 163 -39 20 -64 25 -130 25 -44 1 -107 -3 -139 -8 l-57 -8 70 70 c45 45 80 90 96 127 24 51 25 61 15 96 -16 52 -63 105 -109 120 -50 17 -167 14 -222 -6 -25 -9 -72 -34 -106 -55 -33 -22 -63 -40 -67 -40 -4 0 -7 26 -7 58 0 65 -22 161 -46 196 -32 50 -106 66 -198 45z m-861 -527 c40 -54 78 -165 73 -214 -7 -70 -82 -38 -130 55 -21 42 -35 158 -24 201 6 23 9 25 27 16 11 -6 35 -32 54 -58z m1612 -848 c-8 -8 -115 -34 -141 -34 -31 0 -6 18 39 29 47 11 111 14 102 5z"/> <path d="M1930 1494 c-54 -62 -101 -184 -71 -184 9 0 25 29 23 41 -2 12 75 133 90 143 44 28 71 -45 46 -123 -9 -25 -25 -70 -37 -98 -17 -43 -18 -53 -6 -53 24 0 88 144 89 200 1 61 -27 104 -71 108 -24 2 -36 -4 -63 -34z"/> <path d="M1597 1490 c-35 -19 -40 -19 -67 -5 -43 22 -64 19 -112 -18 l-43 -33 -34 23 c-19 13 -40 23 -48 23 -8 0 -36 -21 -63 -46 -48 -45 -49 -45 -79 -30 -43 23 -66 20 -104 -13 -31 -28 -35 -29 -81 -19 -57 12 -84 2 -109 -42 -19 -31 -23 -70 -7 -70 6 0 10 7 10 15 0 8 12 28 28 45 l27 30 55 -15 55 -14 30 29 c34 33 60 37 89 15 31 -24 49 -18 96 30 24 25 48 45 53 45 5 0 22 -11 39 -25 39 -33 53 -32 99 10 43 39 56 42 85 20 25 -19 68 -19 84 0 21 25 49 27 93 7 62 -29 123 -46 142 -38 25 9 10 22 -42 36 -27 8 -59 22 -73 32 -40 29 -80 32 -123 8z"/> <path d="M554 1380 c-37 -15 -54 -50 -54 -110 1 -112 81 -220 163 -220 30 0 73 32 92 70 23 45 18 47 -18 5 -58 -67 -125 -48 -172 49 -63 129 -8 234 74 141 17 -20 34 -47 37 -60 7 -27 34 -35 34 -10 0 28 -27 80 -56 107 -33 31 -70 41 -100 28z"/> <path d="M1640 1150 c-28 -28 -27 -98 1 -134 27 -34 49 -33 83 3 53 56 31 151 -36 151 -15 0 -37 -9 -48 -20z"/> <path d="M1855 1060 c-3 -5 13 -14 35 -20 50 -13 52 -33 9 -94 -42 -59 -35 -78 26 -69 37 5 45 3 45 -10 0 -20 -62 -97 -139 -172 -63 -61 -71 -75 -47 -75 24 0 181 156 207 205 l24 46 -24 20 c-13 10 -34 19 -47 19 -29 0 -30 7 -4 40 11 14 20 40 20 57 0 26 -6 36 -30 48 -33 17 -66 20 -75 5z"/> <path d="M840 1000 c-36 -36 -38 -100 -4 -134 21 -21 28 -20 60 7 21 18 27 32 27 65 0 44 -23 82 -50 82 -7 0 -22 -9 -33 -20z"/> 
 </g> 
 </svg> 